<svg width="60" height="60" viewBox="0 0 60 60" fill="none" xmlns="http://www.w3.org/2000/svg">
<path d="M27.8347 0.0280455C27.6074 0.0519931 26.8977 0.136045 26.2715 0.209766C23.7474 0.497607 20.8851 1.25548 18.3731 2.3134C9.28215 6.11075 2.44007 14.4422 0.552363 23.9982C0.10803 26.2709 0 27.3875 0 30.0086C0 33.3871 0.335833 35.7185 1.22591 38.6645C4.13568 48.3046 11.7109 55.8655 21.3787 58.7857C24.2885 59.6643 26.6332 60 30 60C33.3795 60 35.7115 59.6643 38.6584 58.7744C48.3013 55.8655 55.8643 48.2924 58.7854 38.6274C59.6642 35.7185 60 33.3744 60 30.0086C60 28.5779 59.9286 26.9438 59.8441 26.3418C58.8699 19.3942 56.0076 13.5519 51.2355 8.77927C46.4723 4.04327 40.6527 1.17096 33.8468 0.197088C32.9093 0.0646713 28.5684 -0.0564756 27.8347 0.0280455ZM18.0354 18.9608C18.6742 19.1533 18.9729 19.3336 19.406 19.7661C20.2482 20.6207 20.4407 21.0888 20.4407 22.3745C20.4407 23.3376 20.4041 23.5174 20.1162 24.0217C19.5619 24.959 18.2759 25.8248 17.3863 25.8483C16.7602 25.8615 16.786 25.5844 17.4708 24.8636C18.3844 23.9137 18.5164 23.5536 18.5164 22.1341C18.5051 20.7644 18.3365 20.2962 17.6996 19.9112C17.1698 19.5867 16.5934 19.6106 15.7513 20.0065C13.5625 21.0536 11.1938 24.5392 10.269 28.1102C9.04166 32.8701 11.2178 36.6797 14.8011 36.0303C15.8466 35.8378 17.8189 34.8291 18.6742 34.0346C19.3825 33.3871 19.3825 33.3744 19.4539 32.5696C19.6117 30.8853 20.8005 29.2033 22.3895 28.422C23.1213 28.0604 23.3031 28.0257 24.2885 28.0257C25.226 28.0257 25.4425 28.0736 25.8995 28.3248C27.3542 29.1559 27.0536 31.0905 25.4792 31.0905C24.5656 31.0905 24.0959 30.6209 24.7582 30.3702C25.4078 30.1298 25.1654 29.2273 24.4097 29.0235C23.5196 28.7943 22.5088 29.3958 21.8719 30.5496C21.1016 31.9442 21.0664 33.6036 21.7986 34.3596C22.5088 35.117 23.3984 34.5174 24.0846 32.7964C24.4444 31.9197 24.9616 31.4502 25.5637 31.4502C26.0921 31.4502 26.1893 31.7751 25.9597 32.7617C25.6224 34.2877 25.8516 34.684 26.8018 34.2164C27.1137 34.0713 27.6313 33.736 27.9432 33.4956L28.5322 33.026L28.9305 30.9459C29.3636 28.6145 29.5303 28.3008 30.4204 28.1341C31.2752 27.9764 31.4678 28.398 31.154 29.7316L30.985 30.4782L31.6111 29.8396C33.0897 28.3248 34.906 27.58 35.5316 28.2055C35.8675 28.5412 35.8308 28.9629 35.3503 30.4524C35.1225 31.1623 34.8088 32.2813 34.666 32.9176C34.4494 33.8787 34.4363 34.1079 34.5579 34.2643C34.9431 34.7207 36.1206 34.2511 37.1666 33.2293L37.7796 32.6297L37.8529 31.2943C37.9243 29.7555 38.0675 29.2033 38.4766 28.7098C38.8618 28.2534 39.5593 27.9177 39.9317 28.013C40.3042 28.1102 40.3042 28.4699 39.9684 29.5283C39.4987 30.9825 39.548 34.3356 40.029 34.3356C40.2215 34.3356 41.2065 33.3026 41.8326 32.4372L42.3004 31.7986L41.9279 31.4154C41.2784 30.7299 41.1224 30.2857 41.1224 29.1667C41.1224 28.3506 41.183 28.0496 41.3864 27.6514C41.7241 27.0278 42.2525 26.5714 42.8781 26.3897C43.5385 26.1859 44.3568 26.5217 44.6926 27.1232C45.0303 27.7359 44.9462 29.1061 44.5127 30.0452L44.2008 30.7294H44.6212C45.1989 30.7294 45.4267 30.5862 46.4615 29.6123C47.0026 29.0953 47.6282 28.6497 48.096 28.4332C49.9363 27.5692 52.1016 28.013 52.4609 29.3353C52.7615 30.3937 52.1016 31.1384 50.9457 31.0539C50.1162 30.9938 49.9602 30.7768 50.4412 30.3702C51.3069 29.6471 50.4412 28.723 49.2026 29.0587C48.5291 29.2399 47.7714 29.9959 47.3755 30.8745C46.5808 32.6297 47.0026 34.6967 48.1439 34.6967C48.6009 34.6967 49.4079 33.7947 49.7197 32.9176C50.0922 31.9071 50.8738 31.2708 51.4628 31.4995C51.7878 31.6192 51.8118 31.9437 51.6079 32.9655C51.3787 34.0844 51.3435 35.1301 51.5234 35.6105C51.5952 35.7899 51.8118 36.1275 52.017 36.3552C52.4003 36.7877 52.4135 36.944 52.0884 37.1492C51.9325 37.2572 51.7268 37.2098 51.2228 36.9333C50.5253 36.5717 49.9236 35.9223 49.7071 35.3095L49.5751 34.9498L49.0941 35.3095C48.817 35.502 48.3844 35.7185 48.1326 35.7899C47.1345 36.0542 45.9072 35.3701 45.3314 34.2164C45.1017 33.7703 45.0303 32.4611 45.1989 31.9564C45.2947 31.6793 45.2947 31.6793 44.9091 31.8718C44.7057 31.9803 44.2727 32.0996 43.9368 32.1362C43.3826 32.1972 43.2981 32.2574 42.7462 32.9542C41.9646 33.9262 40.5809 35.2381 40.0158 35.5152C38.8143 36.1148 38.4179 35.9462 38.1041 34.7075L37.8876 33.8787L37.37 34.3356C36.7096 34.9132 35.387 35.6105 34.6289 35.7791C33.9079 35.935 33.1376 35.7058 32.8252 35.225C32.3579 34.5042 32.5138 32.9781 33.2583 30.9219C33.8106 29.3958 33.4147 29.3724 32.0202 30.8266C30.9854 31.9197 30.5411 32.7011 30.2532 33.9154C29.9526 35.1776 29.5909 35.634 28.7746 35.8265C28.2809 35.935 28.0512 35.634 28.1489 34.9738L28.2203 34.4436L27.7633 34.7573C27.1137 35.2015 26.2955 35.6105 25.7305 35.7664C25.1654 35.9223 24.4205 35.7551 24.2406 35.4415C23.916 34.8897 23.916 34.8897 23.4116 35.2856C22.3162 36.1754 20.7531 35.9223 19.9602 34.7446L19.7066 34.3723L18.9142 35.1057C16.6282 37.1971 13.7678 38.1344 11.6508 37.485C8.95712 36.6689 7.46724 34.3596 7.49119 31.0304C7.50247 27.6885 8.98107 24.1668 11.4709 21.5584C12.8781 20.091 14.2008 19.2251 15.5479 18.9007C16.5202 18.6603 17.1111 18.6725 18.0354 18.9608Z" fill="#00C4CC"/>
<path d="M42.4085 27.5086C42.144 27.7725 42.2413 28.8309 42.5776 29.5042C42.7462 29.8526 42.9261 30.1297 42.9862 30.1297C43.0341 30.1297 43.1421 29.8526 43.2267 29.515C43.5273 28.266 42.9862 26.9305 42.4085 27.5086Z" fill="#00C4CC"/>
</svg>
