<svg width="67" height="67" viewBox="0 0 67 67" fill="none" xmlns="http://www.w3.org/2000/svg">
<path d="M0 0H55.9195C61.8021 0 66.5708 4.76813 66.5708 10.6513V55.9195C66.5708 61.8027 61.8027 66.5708 55.9195 66.5708H10.6513C4.76865 66.5708 0 61.8027 0 55.9195V0Z" fill="#663399"/>
<path d="M23.8386 61.2462C19.564 61.242 16.9251 58.833 16.9761 54.4018V43.193C16.9761 40.9459 17.6336 39.2379 18.9487 38.0691C21.3115 35.7917 26.7927 35.6538 29.106 38.104C30.5326 39.361 31.0709 41.9292 30.9429 44.3262H26.0354C26.0739 43.3859 26.0229 41.9578 25.4685 41.421C24.7492 40.4485 22.8499 40.5619 22.3459 41.5755C22.037 42.1263 21.8831 42.9387 21.8831 44.0178V53.7486C21.8831 55.7887 22.5921 56.8202 24.0102 56.8431C24.6738 56.8428 25.1775 56.6018 25.5211 56.1202C25.9985 55.5486 26.0739 54.2853 26.0354 53.3689H30.9435C31.2789 58.0336 28.524 61.3023 23.8391 61.2451L23.8386 61.2462ZM39.4187 61.2462C34.6808 61.3112 32.562 57.9384 32.692 53.3695H37.3259C37.1959 55.3624 37.8809 57.1765 39.5222 57.0506C40.2538 57.0506 40.7685 56.8211 41.0664 56.362C41.6312 55.5231 41.7388 53.1037 40.928 52.167C40.3637 51.2647 38.3297 50.4684 37.2573 49.9322C35.7237 49.1989 34.6199 48.3274 33.9459 47.3178C32.4221 45.0788 32.564 40.1645 34.6995 38.1716C36.7757 35.7131 42.196 35.6013 44.2743 38.1206C45.5563 39.4187 46.1154 41.9744 46.0072 44.3273H41.5459C41.5844 43.3599 41.4928 41.7997 41.1173 41.2328C40.8531 40.7508 40.3554 40.5099 39.6242 40.5099C38.3198 40.5102 37.6676 41.2896 37.6676 42.8482C37.6817 44.502 38.3281 45.1823 39.8312 45.873C41.7773 46.6287 44.2519 47.9211 45.1501 49.4834C47.8254 54.2474 45.989 61.5223 39.4187 61.2441V61.2462ZM54.3816 61.2462C49.6436 61.3112 47.5248 57.9384 47.6548 53.3695H52.2888C52.1587 55.3624 52.8432 57.1765 54.4851 57.0506C55.216 57.0506 55.7307 56.8211 56.0292 56.362C56.5935 55.5231 56.6996 53.1037 55.8909 52.167C55.326 51.2647 53.2925 50.4684 52.2196 49.9322C50.686 49.1989 49.5822 48.3274 48.9082 47.3178C47.3844 45.0788 47.5269 40.1645 49.6623 38.1716C51.7385 35.7131 57.1583 35.6013 59.2371 38.1206C60.5186 39.4187 61.0777 41.9744 60.97 44.3273H56.5082C56.5446 43.3599 56.4557 41.7997 56.0797 41.2328C55.8155 40.7508 55.3179 40.5099 54.587 40.5099C53.2823 40.5102 52.6299 41.2896 52.6299 42.8482C52.6445 44.502 53.2904 45.1823 54.7935 45.873C56.7402 46.6287 59.2142 47.9211 60.1124 49.4834C62.7882 54.2474 60.9518 61.5223 54.3811 61.2441L54.3816 61.2462Z" fill="white"/>
</svg>
