<svg width="49" height="68" viewBox="0 0 49 68" fill="none" xmlns="http://www.w3.org/2000/svg">
<path d="M12.25 68.0001C19.0302 68.0001 24.5 62.858 24.5 56.4839V44.9678H12.25C5.46977 44.9678 0 50.1099 0 56.4839C0 62.858 5.46977 68.0001 12.25 68.0001Z" fill="#0ACF83"/>
<path d="M0 34C0 27.9295 5.46977 23.0322 12.25 23.0322H24.5V44.9677H12.25C5.46977 44.9677 0 40.0705 0 34Z" fill="#A259FF"/>
<path d="M0 11.5161C0 5.14209 5.46977 0 12.25 0H24.5V23.0323H12.25C5.46977 23.0323 0 17.8902 0 11.5161Z" fill="#F24E1E"/>
<path d="M24.5 0H36.75C43.5302 0 49 5.14209 49 11.5161C49 17.8902 43.5302 23.0323 36.75 23.0323H24.5V0Z" fill="#FF7262"/>
<path d="M49 34C49 40.0705 43.5302 44.9677 36.75 44.9677C29.9698 44.9677 24.5 40.0705 24.5 34C24.5 27.9295 29.9698 23.0322 36.75 23.0322C43.5302 23.0322 49 27.9295 49 34Z" fill="#1ABCFE"/>
</svg>
