<svg width="57" height="57" viewBox="0 0 57 57" fill="none" xmlns="http://www.w3.org/2000/svg">
<path d="M23.4625 5.0374L20.983 7.5169L24.3852 10.9191L27.9477 14.4816C28.7591 14.0802 29.6595 13.8925 30.5637 13.9364C31.4679 13.9802 32.346 14.2541 33.1147 14.7321C33.8835 15.2102 34.5175 15.8765 34.9568 16.668C35.396 17.4595 35.626 18.3501 35.6249 19.2553C35.6057 20.0632 35.4176 20.858 35.0727 21.5888L38.7421 25.1513C39.7044 24.5953 40.8306 24.3925 41.9264 24.5778C43.0222 24.7632 44.019 25.3251 44.7449 26.1666C45.2522 26.653 45.6533 27.2391 45.923 27.8881C46.1928 28.5371 46.3254 29.2348 46.3124 29.9375C46.3136 31.3406 45.7664 32.6887 44.7877 33.6942C44.2952 34.2085 43.7018 34.6154 43.0446 34.8895C42.3874 35.1635 41.6806 35.2987 40.9687 35.2866C40.2644 35.2977 39.5652 35.1661 38.9132 34.8997C38.2611 34.6334 37.6697 34.2379 37.1746 33.7369C36.3357 33.0049 35.7775 32.004 35.5955 30.9056C35.4135 29.8072 35.6191 28.6797 36.1771 27.7163L32.6146 24.0469C32.4346 24.1283 32.2503 24.1997 32.0624 24.2607V35.625C33.0965 35.9934 33.9921 36.6713 34.6274 37.5666C35.2758 38.4565 35.6251 39.5292 35.6249 40.6303C35.6389 41.3357 35.5072 42.0364 35.2381 42.6886C34.969 43.3408 34.5683 43.9305 34.061 44.4208C33.091 45.3897 31.7837 45.9457 30.413 45.9723C29.4225 46.0033 28.4431 45.7564 27.5856 45.2597C26.7281 44.763 26.0267 44.0362 25.5607 43.1616C25.0948 42.287 24.8829 41.2994 24.949 40.3107C25.0152 39.3219 25.3567 38.3714 25.9349 37.5666C26.5702 36.6713 27.4658 35.9934 28.4999 35.625V24.2607C27.4635 23.8965 26.5668 23.2177 25.9349 22.3191C25.2843 21.4303 24.9348 20.3568 24.9374 19.2553C24.9359 18.445 25.1251 17.6456 25.4896 16.9219L18.5427 9.97502L5.04263 23.4627C4.38059 24.1242 3.85537 24.9097 3.49697 25.7742C3.13858 26.6388 2.95402 27.5655 2.95386 28.5014C2.95369 29.4373 3.13792 30.3641 3.49601 31.2288C3.8541 32.0935 4.37905 32.8792 5.04085 33.541L23.4625 51.9627C24.7987 53.2984 26.6106 54.0488 28.4999 54.0488C30.3892 54.0488 32.2012 53.2984 33.5373 51.9627L51.9625 33.5374C53.2983 32.2013 54.0486 30.3893 54.0486 28.5C54.0486 26.6107 53.2983 24.7988 51.9625 23.4627L33.5373 5.0374C32.2012 3.70167 30.3892 2.95129 28.4999 2.95129C26.6106 2.95129 24.7987 3.70167 23.4625 5.0374Z" fill="#E64A19"/>
</svg>
