<svg width="67" height="67" viewBox="0 0 67 67" fill="none" xmlns="http://www.w3.org/2000/svg">
<path d="M46.9323 13.7179C36.1651 13.7179 27.4369 22.4467 27.4369 33.2133C27.4369 43.9804 36.1656 52.7066 46.9323 52.7066C57.6973 52.7066 66.4255 43.9804 66.4255 33.2128C66.4255 22.4451 57.6968 13.7179 46.9323 13.7179ZM46.9323 42.598C41.7469 42.598 37.5455 38.3966 37.5455 33.2133C37.5455 28.0279 41.7469 23.8265 46.9323 23.8265C52.1155 23.8265 56.3169 28.0279 56.3169 33.2133C56.3169 38.3966 52.1155 42.598 46.9323 42.598Z" fill="#FFB300"/>
<path d="M26.195 39.7847V39.7806C25.3229 40.6736 24.2808 41.3831 23.1301 41.867C21.9795 42.351 20.7436 42.5997 19.4954 42.5985C14.31 42.5985 10.1086 38.3965 10.1086 33.2133C10.1086 28.0279 14.31 23.8265 19.4954 23.8265C22.1379 23.8265 24.5219 24.9215 26.2277 26.6802L31.6424 17.9805C28.3092 15.3199 24.0912 13.7179 19.4954 13.7179C8.72821 13.7179 0 22.4466 0 33.2133C0 43.9804 8.72873 52.7066 19.4954 52.7066C24.0626 52.7066 28.2563 51.1232 31.5796 48.4927L26.195 39.7847Z" fill="#FFB300"/>
<path d="M10.1086 33.2127C10.1086 30.6315 11.1517 28.2962 12.8362 26.5987L5.8252 19.3241C2.23252 22.8587 0 27.7736 0 33.2127C0 38.6254 2.20969 43.5222 5.77279 47.0552L12.8974 39.8864C12.013 39.0148 11.3109 37.9757 10.8321 36.83C10.3533 35.6842 10.1073 34.4545 10.1086 33.2127ZM53.6178 26.6293C55.3495 28.3829 56.3194 30.7488 56.3169 33.2133C56.3169 38.3965 52.1155 42.5979 46.9322 42.5979C44.2939 42.5979 41.9155 41.5081 40.2103 39.7562L32.9896 46.8258C36.5304 50.4502 41.464 52.7065 46.9317 52.7065C57.6973 52.7065 66.4255 43.9804 66.4255 33.2127C66.4255 27.8909 64.289 23.0756 60.8359 19.5592L53.6178 26.6293Z" fill="#F57A00"/>
</svg>
