<svg width="67" height="67" viewBox="0 0 67 67" fill="none" xmlns="http://www.w3.org/2000/svg">
<path d="M50.9683 0H15.6025C6.98549 0 0 6.98549 0 15.6025V50.9683C0 59.5853 6.98549 66.5708 15.6025 66.5708H50.9683C59.5853 66.5708 66.5708 59.5853 66.5708 50.9683V15.6025C66.5708 6.98549 59.5853 0 50.9683 0Z" fill="#F0DB4F"/>
<path d="M17.5039 55.6314L22.5981 52.5483C23.5811 54.2909 24.4751 55.7653 26.6197 55.7653C28.6753 55.7653 29.9714 54.9612 29.9714 51.8335V30.5625H36.2275V51.9219C36.2275 58.4013 32.4293 61.3507 26.8878 61.3507C21.8833 61.3507 18.9784 58.7589 17.5037 55.6309M39.6254 54.961L44.7192 52.0118C46.0602 54.2017 47.803 55.8103 50.8861 55.8103C53.4784 55.8103 55.1312 54.5142 55.1312 52.7267C55.1312 50.5819 53.4332 49.822 50.5732 48.5712L49.0096 47.9006C44.496 45.9794 41.5019 43.5662 41.5019 38.472C41.5019 33.7798 45.077 30.2047 50.6629 30.2047C54.64 30.2047 57.5 31.5902 59.5553 35.2097L54.6845 38.3378C53.6118 36.4163 52.4505 35.6568 50.6629 35.6568C48.8307 35.6568 47.6688 36.8186 47.6688 38.3378C47.6688 40.2145 48.8307 40.9744 51.5117 42.1365L53.0756 42.8066C58.3932 45.0859 61.3873 47.4091 61.3873 52.6372C61.3873 58.2682 56.9635 61.3513 51.0202 61.3513C45.2112 61.3513 41.4574 58.5808 39.6254 54.961Z" fill="#323330"/>
</svg>
