<svg width="89" height="89" viewBox="0 0 89 89" fill="none" xmlns="http://www.w3.org/2000/svg">
<path fill-rule="evenodd" clip-rule="evenodd" d="M61.214 29.7677C62.3299 32.996 63.1337 36.2918 63.3979 39.7079C63.7261 43.9458 63.5759 48.1538 62.6825 52.3222C62.6581 52.437 62.6067 52.5447 62.5684 52.656C62.2882 52.6567 62.0024 52.6219 61.7285 52.6643C59.4138 53.028 57.1012 53.4048 54.7886 53.7796C52.3981 54.1669 50.0041 54.5389 47.6178 54.9526C46.7723 55.0986 45.7259 54.9241 45.3845 56.0936C45.3747 56.1256 45.2774 56.1312 45.2211 56.1492L45.3365 49.1607L45.219 32.2979L46.3329 32.1067C48.1546 31.8084 49.9763 31.506 51.7994 31.216C53.9751 30.8705 56.1528 30.5346 58.3298 30.1974C59.29 30.0479 60.2517 29.9109 61.214 29.7677Z" fill="#439934"/>
<path fill-rule="evenodd" clip-rule="evenodd" d="M42.9209 76.5219C41.7458 75.5116 40.5297 74.5458 39.4033 73.4834C33.3423 67.7665 28.909 61.038 26.7257 52.9258C26.1243 50.6931 25.7231 48.4243 25.5944 46.1173C25.504 44.5028 25.3733 42.8737 25.4874 41.2675C25.7912 36.9955 26.4086 32.7645 27.6616 28.6497L27.7304 28.5537C27.8521 28.7157 28.0273 28.859 28.0892 29.0418C29.312 32.6435 30.527 36.2478 31.734 39.8546C35.5291 51.1882 39.3192 62.5246 43.1205 73.8554C43.1949 74.0765 43.3875 74.258 43.5258 74.4575L42.9209 76.5219Z" fill="#45A538"/>
<path fill-rule="evenodd" clip-rule="evenodd" d="M61.214 29.7677C60.2517 29.9109 59.2894 30.0479 58.3291 30.196C56.1521 30.5333 53.9744 30.8691 51.7988 31.2147C49.9756 31.5046 48.1539 31.8071 46.3322 32.1054L45.2183 32.2966L45.21 31.57C45.1731 30.9727 45.1098 30.3761 45.1029 29.7788C45.0549 25.9699 45.025 22.161 44.9777 18.3521C44.9485 15.9678 44.9047 13.5843 44.8561 11.2008C44.8262 9.71977 44.7942 8.23806 44.7274 6.75913C44.6913 5.96439 44.5633 5.17382 44.5112 4.37908C44.482 3.92225 44.5223 3.46196 44.5313 3.00305C45.0994 4.10373 45.655 5.21275 46.239 6.30509C47.1617 8.03225 48.6316 9.30467 49.9548 10.6932C55.1856 16.1806 58.8993 22.5608 61.214 29.7677Z" fill="#46A037"/>
<path fill-rule="evenodd" clip-rule="evenodd" d="M45.2203 56.1485C45.2766 56.1304 45.3747 56.1249 45.3837 56.0929C45.7251 54.9234 46.7716 55.0979 47.6171 54.9519C50.0034 54.5389 52.3973 54.1662 54.7878 53.7789C57.1004 53.4041 59.413 53.0273 61.7277 52.6636C62.0017 52.6205 62.2875 52.656 62.5677 52.6553C62.1352 54.1989 61.7945 55.7758 61.2459 57.277C60.6229 58.9798 59.8692 60.6416 59.0689 62.2707C57.8716 64.7011 56.3886 66.98 54.6515 69.0591C53.3172 70.6639 51.83 72.147 50.3392 73.612C49.5153 74.422 48.5439 75.0819 47.64 75.8099L47.4057 75.65L46.5616 74.9282L45.6883 73.014C45.0917 70.781 44.7663 68.4843 44.719 66.1735L44.735 65.7835L44.8539 64.0966C44.8935 63.5209 44.9464 62.9459 44.9707 62.3688C45.0604 60.2954 45.1383 58.2219 45.2203 56.1485Z" fill="#409433"/>
<path fill-rule="evenodd" clip-rule="evenodd" d="M45.2204 56.1486C45.1384 58.222 45.0605 60.2954 44.9722 62.3695C44.9479 62.9467 44.895 63.5217 44.8554 64.0974L44.3235 64.2983C43.1422 60.8204 41.9601 57.3793 40.8038 53.9291C38.8917 48.2213 37.0025 42.5045 35.0932 36.7953C33.5511 32.187 31.9982 27.5824 30.4346 22.9815C30.3616 22.7659 30.1516 22.5977 30.0056 22.4072L33.4099 16.1479C33.5267 16.351 33.681 16.5408 33.7547 16.7591C35.3314 21.4192 36.9 26.082 38.4606 30.7474C40.4881 36.8175 42.5032 42.8924 44.5293 48.9632C44.61 49.2059 44.7435 49.4298 44.8707 49.7016L45.3366 49.1593L45.2204 56.1486Z" fill="#4FAA41"/>
<path fill-rule="evenodd" clip-rule="evenodd" d="M30.0063 22.4078C30.1523 22.5984 30.3616 22.7666 30.4353 22.9822C31.9989 27.5831 33.5517 32.1877 35.0939 36.7959C37.0032 42.5051 38.8924 48.222 40.8045 53.9298C41.9601 57.3793 43.1421 60.8211 44.3241 64.299L44.8561 64.0981L44.7372 65.7849L44.6294 66.1736C44.4444 68.0203 44.2887 69.8713 44.0634 71.7138C43.9501 72.6372 43.7095 73.5439 43.5266 74.4582C43.3889 74.2587 43.1956 74.0772 43.1212 73.8561C39.32 62.5246 35.5298 51.1889 31.7348 39.8553C30.5275 36.2485 29.3125 32.6442 28.09 29.0425C28.0281 28.8596 27.8536 28.7164 27.7312 28.5544L30.0063 22.4078Z" fill="#4AA73C"/>
<path fill-rule="evenodd" clip-rule="evenodd" d="M45.3359 49.16L44.87 49.7023C44.7428 49.4305 44.6093 49.2059 44.5286 48.9639C42.5032 42.8931 40.4875 36.8182 38.4599 30.7481C36.8993 26.0827 35.3307 21.4199 33.7541 16.7598C33.681 16.5415 33.5267 16.351 33.4092 16.1486L37.6193 10.6105C37.7521 10.7878 37.9412 10.9456 38.0101 11.1452C39.1782 14.567 40.3377 17.9921 41.4887 21.4205C42.5644 24.6217 43.624 27.8278 44.7122 31.0248C44.7852 31.239 45.039 31.3906 45.2086 31.5714L45.217 32.298C45.2573 37.9179 45.2969 43.5386 45.3359 49.16Z" fill="#57AE47"/>
<path fill-rule="evenodd" clip-rule="evenodd" d="M45.2099 31.5699C45.0403 31.3891 44.7865 31.2376 44.7135 31.0234C43.6253 27.8264 42.5657 24.6203 41.49 21.4191C40.339 17.9912 39.1795 14.5661 38.0114 11.1437C37.9425 10.9442 37.7534 10.7863 37.6206 10.609C38.9897 9.26847 40.3163 7.87993 41.7403 6.60125C43.0065 5.46511 44.0244 4.24693 44.071 2.45163C44.0731 2.37723 44.112 2.30283 44.1718 2.09424L44.5327 3.00232C44.5237 3.46192 44.4826 3.92152 44.5125 4.37834C44.5647 5.17308 44.6926 5.96365 44.7288 6.75839C44.7955 8.23732 44.8275 9.71903 44.8574 11.2001C44.9054 13.5836 44.9492 15.9671 44.9791 18.3513C45.0257 22.1603 45.0563 25.9692 45.1043 29.7781C45.1098 30.3768 45.1724 30.9727 45.2099 31.5699Z" fill="#60B24F"/>
<path fill-rule="evenodd" clip-rule="evenodd" d="M43.5251 74.4575C43.708 73.5432 43.9485 72.6358 44.0619 71.7131C44.2878 69.8712 44.4429 68.0196 44.6279 66.1728L44.6737 66.1659L44.7196 66.1735C44.7669 68.4843 45.0924 70.781 45.6889 73.014C45.5665 73.1753 45.3934 73.3193 45.3287 73.5014C44.8232 74.9268 44.3469 76.3633 43.8387 77.7887C43.7691 77.9834 43.5758 78.135 43.4396 78.306L42.9202 76.5219L43.5251 74.4575Z" fill="#A9AA88"/>
<path fill-rule="evenodd" clip-rule="evenodd" d="M43.4404 78.3068C43.5767 78.1357 43.7707 77.9842 43.8395 77.7895C44.3478 76.3641 44.8248 74.9283 45.3296 73.5022C45.3943 73.32 45.5667 73.1761 45.6898 73.0148L46.5624 74.9297C46.3899 75.1744 46.1521 75.3948 46.0562 75.6674L44.3847 80.5756C44.3158 80.7724 44.0808 80.9114 43.9237 81.0776L43.4404 78.3068Z" fill="#B6B598"/>
<path fill-rule="evenodd" clip-rule="evenodd" d="M43.9236 81.0769C44.0814 80.9114 44.3157 80.7717 44.3846 80.5749L46.0561 75.6667C46.1514 75.3948 46.3899 75.1737 46.5623 74.929L47.4071 75.65C46.999 76.0533 46.7723 76.5191 46.9086 77.1081L46.652 77.948C46.5352 78.0919 46.3662 78.2171 46.3085 78.3819C45.7251 80.0527 45.1682 81.7326 44.5807 83.4034C44.5063 83.6155 44.2997 83.7817 44.1537 83.968C44.0777 83.0043 44.001 82.0406 43.9236 81.0769Z" fill="#C2C1A7"/>
<path fill-rule="evenodd" clip-rule="evenodd" d="M44.1544 83.968C44.2997 83.781 44.5062 83.6148 44.5813 83.4034C45.1688 81.7333 45.7258 80.0534 46.3091 78.3819C46.3668 78.2178 46.5351 78.0919 46.6526 77.948L46.2987 81.8035C46.2041 81.9127 46.0672 82.0079 46.022 82.1352C45.6222 83.2574 45.2453 84.388 44.8441 85.5102C44.7614 85.7418 44.6028 85.9462 44.4791 86.1624C44.3692 86.0185 44.1724 85.8794 44.1634 85.7292C44.1279 85.1445 44.1523 84.5556 44.1544 83.968Z" fill="#CECDB7"/>
<path fill-rule="evenodd" clip-rule="evenodd" d="M44.4785 86.1624C44.6023 85.9454 44.7608 85.741 44.8436 85.5102C45.2454 84.3886 45.6216 83.2581 46.0214 82.1351C46.0666 82.0079 46.2043 81.9133 46.2981 81.8035L46.3065 84.3344L45.4596 86.5066L44.4785 86.1624Z" fill="#DBDAC7"/>
<path fill-rule="evenodd" clip-rule="evenodd" d="M45.4595 86.5074L46.3064 84.3352L46.4809 86.9051L45.4595 86.5074Z" fill="#EBE9DC"/>
<path fill-rule="evenodd" clip-rule="evenodd" d="M46.9086 77.1087C46.7724 76.5198 46.9983 76.0532 47.4072 75.6506L47.6415 75.8106L46.9086 77.1087Z" fill="#CECDB7"/>
<path fill-rule="evenodd" clip-rule="evenodd" d="M44.7197 66.1743L44.6738 66.1666L44.6279 66.1736L44.7357 65.7849L44.7197 66.1743Z" fill="#4FAA41"/>
</svg>
