<svg width="76" height="76" viewBox="0 0 76 76" fill="none" xmlns="http://www.w3.org/2000/svg">
<path d="M50.5148 14.2295C50.3261 14.2295 50.1451 14.3045 50.0117 14.4379C49.8782 14.5713 49.8033 14.7523 49.8033 14.941V27.9776L46.8483 26.2534C46.6658 26.1458 46.4578 26.089 46.2459 26.089C46.034 26.089 45.826 26.1458 45.6435 26.2534L38.543 30.3942C38.3608 30.4983 38.2095 30.6488 38.1045 30.8305C37.9995 31.0121 37.9446 31.2184 37.9454 31.4282V39.7193C37.9454 40.1462 38.173 40.5399 38.543 40.7533L45.6435 44.8941C45.826 45.0017 46.034 45.0585 46.2459 45.0585C46.4578 45.0585 46.6658 45.0017 46.8483 44.8941L53.9488 40.7533C54.131 40.6492 54.2823 40.4987 54.3873 40.317C54.4923 40.1354 54.5472 39.9291 54.5464 39.7193V17.1465C54.5461 16.9397 54.4916 16.7365 54.3884 16.5572C54.2853 16.3779 54.137 16.2287 53.9583 16.1244L50.8681 14.3267C50.7615 14.2644 50.6406 14.2309 50.5171 14.2295H50.5148ZM27.2732 26.0922C27.0616 26.0912 26.8537 26.1469 26.6708 26.2534L19.5703 30.3942C19.3881 30.4983 19.2368 30.6488 19.1318 30.8305C19.0268 31.0121 18.9719 31.2184 18.9727 31.4282V39.7193C18.9727 40.1462 19.2003 40.5399 19.5703 40.7533L26.6708 44.8941C27.0432 45.1075 27.5009 45.1075 27.8756 44.8941L34.9761 40.7533C35.1583 40.6492 35.3096 40.4987 35.4146 40.317C35.5196 40.1354 35.5745 39.9291 35.5738 39.7193V31.4282C35.5745 31.2184 35.5196 31.0121 35.4146 30.8305C35.3096 30.6488 35.1583 30.4983 34.9761 30.3942L27.8756 26.2534C27.6928 26.1469 27.4848 26.0912 27.2732 26.0922ZM65.2186 26.0922C65.007 26.0912 64.799 26.1469 64.6162 26.2534L57.5157 30.3942C57.3335 30.4983 57.1822 30.6488 57.0772 30.8305C56.9722 31.0121 56.9173 31.2184 56.918 31.4282V39.7193C56.918 40.1462 57.1457 40.5399 57.5157 40.7533L64.4028 44.9154C64.585 45.0254 64.7934 45.0843 65.0062 45.086C65.219 45.0877 65.4284 45.032 65.6123 44.9249L68.9989 42.9565C69.0786 42.9096 69.1446 42.8427 69.1905 42.7624C69.2363 42.6821 69.2605 42.5912 69.2605 42.4988C69.2605 42.4063 69.2363 42.3155 69.1905 42.2352C69.1446 42.1549 69.0786 42.088 68.9989 42.0411L61.6612 37.7177V33.463L65.2186 31.3927L68.776 33.463V36.4275C68.776 36.8236 69.108 36.8852 69.3309 36.7524L72.931 34.6583C73.1097 34.5541 73.2579 34.4049 73.3611 34.2255C73.4643 34.0462 73.5188 33.843 73.5191 33.6362V31.4306C73.5199 31.2208 73.465 31.0145 73.36 30.8329C73.255 30.6512 73.1037 30.5007 72.9215 30.3966L65.821 26.2558C65.6382 26.1493 65.4302 26.0936 65.2186 26.0945V26.0922ZM8.30055 26.0969C8.08896 26.096 7.88097 26.1516 7.69816 26.2582L0.597639 30.3942C0.416368 30.5005 0.265922 30.6522 0.161124 30.8344C0.0563271 31.0165 0.000795005 31.2228 0 31.433L0 42.0173C0 42.5344 0.559694 42.8545 1.00555 42.596L4.15502 40.7628C4.33404 40.6583 4.48256 40.5087 4.58576 40.329C4.68896 40.1492 4.74323 39.9455 4.74317 39.7383V33.4702L8.30055 31.395L11.8579 33.4702V39.7383C11.8583 39.9451 11.9127 40.1483 12.0159 40.3276C12.1191 40.5069 12.2674 40.6561 12.4461 40.7604L15.5955 42.596C15.6972 42.6553 15.8128 42.6867 15.9305 42.687C16.0482 42.6873 16.1639 42.6566 16.2659 42.5979C16.3679 42.5392 16.4526 42.4546 16.5115 42.3526C16.5703 42.2507 16.6012 42.1351 16.6011 42.0173V31.433C16.6003 31.2228 16.5448 31.0165 16.44 30.8344C16.3352 30.6522 16.1847 30.5005 16.0035 30.3942L8.90293 26.2582C8.72012 26.1516 8.51213 26.096 8.30055 26.0969ZM46.2459 31.3903L49.8033 33.4654V37.6821L46.2459 39.7572L42.6885 37.6821V33.463L46.2459 31.3879V31.3903ZM65.2186 33.2117L63.1861 34.3974V36.7643L65.2186 37.9453L67.251 36.7643V34.3974L65.2186 33.2117ZM36.5366 42.6838C36.2902 42.6818 36.0475 42.7439 35.8323 42.864L29.1634 46.7202C28.9494 46.8426 28.7716 47.0194 28.6479 47.2326C28.5242 47.4458 28.4591 47.688 28.459 47.9345V55.6326C28.459 56.1283 28.7365 56.5955 29.1634 56.8469L30.9183 57.8477C31.7603 58.2627 32.0709 58.2627 32.4528 58.2627C33.7097 58.2627 34.4259 57.5109 34.4259 56.1828V48.5772C34.4272 48.551 34.4231 48.525 34.4139 48.5005C34.4047 48.4761 34.3905 48.4538 34.3722 48.4351C34.3539 48.4164 34.332 48.4016 34.3078 48.3918C34.2836 48.382 34.2576 48.3773 34.2315 48.3779H33.3872C33.3343 48.3779 33.2837 48.3989 33.2463 48.4363C33.2089 48.4737 33.188 48.5243 33.188 48.5772V56.1828C33.188 56.7591 32.5785 57.352 31.5848 56.8564L29.7586 55.8034C29.7289 55.7846 29.7042 55.7588 29.6868 55.7281C29.6694 55.6975 29.6599 55.6631 29.659 55.6279V47.9297C29.659 47.8609 29.6922 47.7803 29.761 47.7447L36.4299 43.9004C36.4618 43.8825 36.4977 43.8731 36.5343 43.8731C36.5708 43.8731 36.6067 43.8825 36.6386 43.9004L43.3146 47.7424C43.3834 47.7803 43.4166 47.8491 43.4166 47.9297V55.6279C43.4151 55.6645 43.405 55.7003 43.3873 55.7323C43.3697 55.7644 43.3448 55.792 43.3146 55.8129L36.6386 59.6714C36.6067 59.6893 36.5708 59.6987 36.5343 59.6987C36.4977 59.6987 36.4618 59.6893 36.4299 59.6714L34.7271 58.6564C34.6797 58.6327 34.6085 58.6208 34.5635 58.6445C34.2511 58.8442 33.9128 58.9998 33.5579 59.107C33.4417 59.1426 33.2852 59.2137 33.6196 59.3987L35.8323 60.7149C36.0486 60.8328 36.2903 60.8963 36.5366 60.8999C36.7819 60.9017 37.0228 60.8343 37.2315 60.7054L43.9028 56.8469C44.1167 56.7245 44.2946 56.5477 44.4182 56.3345C44.5419 56.1212 44.6071 55.8791 44.6071 55.6326V47.9345C44.6047 47.6884 44.5386 47.4473 44.4151 47.2344C44.2917 47.0216 44.1151 46.8444 43.9028 46.7202L37.2315 42.8664C37.0191 42.7479 36.7799 42.6858 36.5366 42.6861V42.6838ZM46.9408 46.2364C46.7726 46.2367 46.6061 46.2701 46.4509 46.3348C46.2956 46.3994 46.1546 46.494 46.0359 46.6132C45.9172 46.7323 45.8231 46.8737 45.7591 47.0292C45.695 47.1847 45.6622 47.3513 45.6625 47.5194C45.6628 47.6876 45.6962 47.8541 45.7609 48.0093C45.8255 48.1646 45.9201 48.3056 46.0393 48.4243C46.1584 48.543 46.2998 48.6371 46.4552 48.7011C46.6107 48.7652 46.7773 48.798 46.9455 48.7977C47.2852 48.7971 47.6107 48.6616 47.8504 48.4209C48.0901 48.1803 48.2244 47.8543 48.2238 47.5147C48.2232 47.175 48.0876 46.8495 47.847 46.6098C47.6064 46.3701 47.2804 46.2358 46.9408 46.2364ZM46.9265 46.4404C47.5289 46.4404 48.0175 46.9147 48.0175 47.5147C48.0132 47.8027 47.8969 48.0777 47.6932 48.2813C47.4895 48.485 47.2145 48.6013 46.9265 48.6056C46.6401 48.6025 46.3667 48.4859 46.1661 48.2813C45.9656 48.0768 45.8544 47.8011 45.857 47.5147C45.856 47.3737 45.883 47.234 45.9364 47.1035C45.9897 46.9731 46.0684 46.8545 46.1679 46.7546C46.2673 46.6547 46.3855 46.5755 46.5158 46.5216C46.646 46.4677 46.7856 46.44 46.9265 46.4404ZM46.4593 46.789V48.2285H46.7321V47.6546H46.9882C47.0926 47.6546 47.1163 47.6973 47.14 47.7779C47.14 47.7898 47.1827 48.1645 47.1945 48.2333H47.491C47.453 48.1084 47.4299 47.9794 47.4222 47.8491C47.389 47.6641 47.3795 47.536 47.1827 47.5242C47.287 47.4886 47.4602 47.4341 47.4602 47.1684C47.4602 46.7866 47.1281 46.789 46.955 46.789H46.4593ZM46.7321 47.019H46.9645C47.0356 47.019 47.1732 47.019 47.1732 47.2135C47.1732 47.2941 47.1376 47.4269 46.9503 47.4222H46.7321V47.019ZM38.3248 48.1953C36.4204 48.1953 35.2892 49.0088 35.2892 50.3464C35.2892 51.812 36.4228 52.2033 38.2465 52.3859C40.4284 52.6065 40.5992 52.9195 40.5992 53.3464C40.5992 54.0958 39.9968 54.4065 38.5881 54.4065C36.8212 54.4065 36.4347 53.9701 36.3066 53.0927C36.2947 52.9978 36.2117 52.929 36.1074 52.929H35.2394C35.2132 52.9283 35.1873 52.933 35.163 52.9429C35.1388 52.9527 35.1169 52.9674 35.0986 52.9861C35.0804 53.0048 35.0662 53.0271 35.0569 53.0516C35.0477 53.076 35.0436 53.1021 35.0449 53.1282C35.0449 54.2476 35.6568 55.5876 38.5762 55.5876C40.7177 55.5876 41.9296 54.7575 41.9296 53.3014C41.9296 51.8594 40.9573 51.4752 38.9035 51.1978C36.826 50.9203 36.6196 50.7804 36.6196 50.2942C36.6196 49.891 36.7904 49.3621 38.3272 49.3621C39.698 49.3621 40.2102 49.6633 40.4189 50.5859C40.4442 50.6823 40.5043 50.7321 40.5992 50.7353H41.4648C41.5233 50.7321 41.5699 50.7132 41.6047 50.6784C41.6427 50.6357 41.6585 50.5867 41.6521 50.5313C41.5146 48.9376 40.4616 48.1953 38.3248 48.1953Z" fill="black"/>
</svg>
