<svg width="80" height="80" viewBox="0 0 80 80" fill="none" xmlns="http://www.w3.org/2000/svg">
<path d="M58.6307 57.5701C59.1213 53.4869 58.9745 52.8876 62.0157 53.5494L62.7876 53.6169C65.1263 53.7232 68.1857 53.2407 69.9832 52.4057C73.8526 50.6101 76.1463 47.6132 72.332 48.4001C63.6295 50.1957 63.0313 47.2488 63.0313 47.2488C72.2207 33.6144 76.062 16.3063 72.7457 12.0694C63.702 0.513795 48.0476 5.97817 47.7857 6.11942L47.702 6.13505C45.9826 5.77817 44.0582 5.56505 41.8963 5.53005C37.9582 5.46505 34.9701 6.56255 32.7032 8.2813C32.7032 8.2813 4.77634 -3.22433 6.07571 22.7507C6.35196 28.2763 13.9957 64.5619 23.1132 53.6019C26.4457 49.5944 29.6657 46.2057 29.6657 46.2057C31.2645 47.2676 33.1795 47.8101 35.187 47.6151L35.3426 47.4826C35.2938 47.98 35.3151 48.4669 35.4045 49.0432C33.0563 51.6676 33.7463 52.1282 29.0507 53.0944C24.2995 54.0732 27.0907 55.8163 28.9126 56.2719C31.122 56.8244 36.2326 57.6069 39.6863 52.7732L39.5488 53.3244C40.4701 54.0619 40.4082 58.6226 40.5382 61.8807C40.6688 65.1394 40.887 68.1801 41.5513 69.9732C42.2157 71.7663 42.9995 76.3832 49.1707 75.0607C54.3282 73.9582 58.2713 72.3676 58.6307 57.5701Z" fill="black"/>
<path d="M47.1612 78.285C44.4318 78.285 42.6543 77.2294 41.5749 76.21C39.9456 74.6725 39.2993 72.6919 38.9131 71.5088L38.7462 71.015C37.9687 68.9163 37.7049 65.8944 37.5487 62.0031C37.5249 61.4188 37.5087 60.8169 37.4906 60.1788C37.4774 59.7119 37.4612 59.1263 37.4375 58.5138C36.4541 58.9826 35.4104 59.3124 34.3362 59.4938C32.4118 59.8225 30.3431 59.7163 28.1862 59.1769C26.6643 58.7963 25.0831 58.0075 24.1818 56.7894C21.5549 59.09 19.0493 58.7781 17.6843 58.3225C15.2762 57.5194 13.1212 55.2625 11.0956 51.4244C9.65245 48.69 8.25682 45.1275 6.94682 40.835C4.66557 33.36 3.2162 25.4869 3.08745 22.9019C2.68245 14.8113 4.86057 9.025 9.55995 5.70563C16.9731 0.46938 28.2049 3.54876 32.2999 4.94688C35.0512 3.28876 38.2881 2.48188 41.9456 2.54001C43.9099 2.57188 45.7806 2.74438 47.5181 3.05438C49.3306 2.48438 52.9106 1.66626 57.0087 1.71751C64.5593 1.80751 70.8162 4.75001 75.1018 10.2269C78.1606 14.1344 76.6481 22.34 75.475 26.8838C73.8237 33.275 70.9306 40.0725 67.3768 45.99C68.3418 45.9969 69.74 45.8813 71.7274 45.4706C75.6487 44.6613 76.7956 46.7638 77.1068 47.705C78.3537 51.4813 72.9337 54.335 71.2431 55.12C69.0768 56.1256 65.5449 56.7381 62.6525 56.6056L62.5262 56.5975L61.7662 56.5306L61.6912 57.1644L61.6187 57.7838C61.4243 65.2831 60.3531 70.0325 58.1487 73.1706C55.8381 76.4606 52.6268 77.3825 49.7981 77.9888C48.8331 78.195 47.9562 78.285 47.1612 78.285ZM41.4174 50.9906C43.1793 52.4006 43.3337 55.0538 43.4718 60.0119C43.4893 60.6306 43.5056 61.2163 43.5274 61.7631C43.5937 63.4194 43.7493 67.2975 44.3568 68.9363C44.4424 69.1681 44.5193 69.4031 44.6006 69.6525C45.2774 71.725 45.6168 72.7644 48.5437 72.1388C51.0006 71.6119 52.2637 71.1394 53.2524 69.7319C54.6893 67.6856 55.4931 63.5694 55.6406 57.4975L58.6299 57.57L55.6612 57.2138L55.7487 56.4725C56.0331 54.0288 56.2381 52.2638 57.8712 51.0963C59.1818 50.16 60.6749 50.2506 61.8643 50.465C60.5574 49.4775 60.1962 48.3194 60.1 47.8444L59.8506 46.6163L60.5512 45.5769C64.5868 39.5894 67.9143 32.2306 69.6818 25.3869C71.4981 18.355 70.9443 14.6206 70.3906 13.9144C63.0599 4.54751 50.3481 8.41501 49.0206 8.85376L48.7962 8.97501L47.6712 9.18438L47.0949 9.06501C45.5062 8.735 43.7412 8.55251 41.8493 8.52188C38.8768 8.47188 36.4787 9.17438 34.5124 10.6663L33.1481 11.7006L31.5649 11.0488C28.1824 9.66563 18.2474 6.88501 13.0049 10.5981C10.0949 12.6594 8.76932 16.6981 9.06432 22.6025C9.16182 24.5519 10.4862 31.9313 12.6712 39.0881C15.6906 48.9788 18.4343 52.2644 19.5799 52.6463C19.7799 52.7138 20.2987 52.3106 20.8149 51.6906C22.9675 49.1103 25.1964 46.5946 27.4987 44.1469L29.2299 42.325L31.3231 43.7156C32.1668 44.2763 33.0974 44.5944 34.0531 44.6544L39.0449 40.3969L38.3218 47.7769C38.3056 47.9425 38.2975 48.1681 38.3624 48.5869L38.5799 49.9856L37.6362 51.0406L37.5274 51.1631L40.2699 52.4288L41.4174 50.9906Z" fill="black"/>
<path d="M72.3318 48.4C63.6287 50.1956 63.0306 47.2488 63.0306 47.2488C72.22 33.6138 76.0612 16.305 72.7462 12.0694C63.7025 0.514397 48.0468 5.97877 47.7856 6.12065L47.7012 6.13565C45.9818 5.77877 44.0575 5.56627 41.8943 5.53127C37.9562 5.4669 34.9693 6.56377 32.7025 8.28252C32.7025 8.28252 4.77497 -3.22248 6.07372 22.7519C6.34997 28.2781 13.9937 64.5638 23.1112 53.6038C26.4437 49.5963 29.6631 46.2075 29.6631 46.2075C31.2625 47.2694 33.1768 47.8119 35.1837 47.6169L35.34 47.4844C35.2912 47.9819 35.3137 48.4688 35.4025 49.045C33.0537 51.6694 33.7437 52.13 29.0481 53.0963C24.2968 54.075 27.0881 55.8181 28.9106 56.2738C31.1193 56.8263 36.2306 57.6088 39.6837 52.775L39.5456 53.3263C40.4662 54.0638 41.1125 58.1213 41.0043 61.7994C40.8962 65.4775 40.8231 68.0031 41.5487 69.9756C42.2737 71.9481 42.9962 76.3856 49.1687 75.0631C54.3262 73.9581 56.9987 71.0938 57.3712 66.3163C57.635 62.9194 58.2318 63.4219 58.27 60.385L58.7493 58.9475C59.3018 54.3431 58.8368 52.8581 62.015 53.5488L62.7868 53.6163C65.1256 53.7225 68.1862 53.24 69.9831 52.405C73.8518 50.6106 76.1462 47.6131 72.3318 48.4Z" fill="#336791"/>
<path d="M47.4732 76.4419C42.3282 76.4419 40.6982 72.3675 40.0313 70.7012C39.0551 68.2594 38.8445 58.7831 39.062 51.0119C39.0652 50.8808 39.0943 50.7517 39.1477 50.632C39.201 50.5122 39.2776 50.4042 39.3728 50.3141C39.4681 50.2241 39.5803 50.1538 39.7028 50.1073C39.8254 50.0608 39.9559 50.039 40.087 50.0431C40.2179 50.0467 40.3468 50.076 40.4663 50.1294C40.5859 50.1829 40.6937 50.2593 40.7837 50.3545C40.8737 50.4496 40.944 50.5616 40.9907 50.6839C41.0374 50.8063 41.0595 50.9366 41.0557 51.0675C40.8051 60.0306 41.1607 68.1531 41.8832 69.9606C43.0107 72.7787 44.7207 75.2437 49.5551 74.2081C54.1445 73.2237 55.8632 71.4837 56.6288 67.0456C57.2164 63.64 58.3782 53.9512 58.5214 52.0394C58.5309 51.9087 58.5662 51.7812 58.6251 51.6642C58.684 51.5472 58.7655 51.443 58.8648 51.3575C58.9641 51.2721 59.0792 51.207 59.2037 51.1662C59.3282 51.1253 59.4595 51.1094 59.5901 51.1194C59.8537 51.1393 60.0987 51.2631 60.2711 51.4635C60.4436 51.6638 60.5296 51.9245 60.5101 52.1881C60.3607 54.1787 59.2045 63.8487 58.5945 67.385C57.6907 72.6269 55.3538 75.0044 49.9732 76.1581C49.0588 76.3537 48.2282 76.4412 47.4732 76.4419ZM19.5757 56.5412C19.126 56.5398 18.6795 56.466 18.2532 56.3225C14.9113 55.2075 11.7282 49.765 8.79197 40.1444C6.55697 32.8212 5.14072 25.1775 5.01635 22.6931C4.64822 15.3281 6.54447 10.1175 10.6538 7.20687C18.7832 1.44687 32.4588 6.93187 33.037 7.16812C33.2819 7.26816 33.477 7.46139 33.5795 7.7053C33.6819 7.94922 33.6833 8.22384 33.5832 8.46875C33.4832 8.71366 33.29 8.9088 33.046 9.01124C32.8021 9.11368 32.5275 9.11504 32.2826 9.015C32.1507 8.96125 19.037 3.7075 11.8026 8.83687C8.28885 11.3281 6.67572 15.9569 7.0076 22.5937C7.11197 24.6869 8.4351 32.1469 10.6988 39.5619C13.3201 48.1506 16.3032 53.57 18.8838 54.4306C19.2888 54.5656 20.5213 54.9762 22.2832 52.8575C24.3378 50.3898 26.4695 47.9874 28.6751 45.6537C28.8596 45.4697 29.1089 45.3651 29.3696 45.3625C29.6302 45.3599 29.8815 45.4595 30.0697 45.6398C30.2579 45.8202 30.368 46.067 30.3765 46.3275C30.385 46.588 30.2912 46.8415 30.1151 47.0337C30.0851 47.065 27.0857 50.2006 23.817 54.1331C22.2688 55.995 20.7851 56.5412 19.5757 56.5412ZM62.9688 48.1381C62.7881 48.1379 62.6107 48.0885 62.4558 47.9953C62.3009 47.902 62.1743 47.7685 62.0894 47.6088C62.0045 47.4492 61.9646 47.2695 61.974 47.0889C61.9834 46.9084 62.0417 46.7337 62.1426 46.5837C71.432 32.7994 74.6926 16.1437 71.9001 12.575C68.3851 8.08375 63.422 5.73812 57.1476 5.6025C52.502 5.5025 48.8095 6.68875 48.2057 6.89562L48.0538 6.9575C47.447 7.14812 46.9813 6.81562 46.8057 6.42687C46.7056 6.20414 46.6904 5.95247 46.7631 5.71932C46.8357 5.48618 46.9912 5.28767 47.2001 5.16125C47.2288 5.14437 47.3201 5.10562 47.4682 5.05125C48.4938 4.67562 52.2426 3.55062 56.8857 3.60375C63.8282 3.6775 69.5632 6.35437 73.4695 11.3462C75.3176 13.7081 75.322 19.1494 73.4813 26.2756C71.6051 33.5412 68.0745 41.3494 63.7957 47.6987C63.6045 47.9844 63.2895 48.1381 62.9688 48.1381ZM63.4438 54.5194C61.8576 54.5194 60.4357 54.2956 59.5845 53.7856C58.7095 53.2612 58.5426 52.5487 58.5207 52.1706C58.282 47.9769 60.5957 47.2469 61.7757 46.9137C61.6114 46.665 61.3776 46.3725 61.1357 46.0706C60.4476 45.2106 59.5051 44.0331 58.7788 42.2719C58.6651 41.9969 58.3088 41.3575 57.8964 40.6169C55.6595 36.6056 51.0051 28.2587 53.9951 23.9844C55.3788 22.0062 58.1345 21.2275 62.1945 21.6619C61.0001 18.0231 55.3126 6.64062 41.817 6.41937C37.7582 6.35187 34.4295 7.6 31.9282 10.1256C26.3282 15.7812 26.5307 26.0144 26.5338 26.1169C26.5373 26.2478 26.5149 26.3781 26.468 26.5004C26.4211 26.6226 26.3506 26.7344 26.2604 26.8295C26.1703 26.9245 26.0623 27.0008 25.9427 27.0541C25.8231 27.1073 25.6941 27.1365 25.5632 27.14C25.4323 27.1434 25.302 27.1211 25.1797 27.0742C25.0575 27.0272 24.9456 26.9567 24.8506 26.8666C24.7556 26.7764 24.6793 26.6685 24.626 26.5489C24.5727 26.4292 24.5435 26.3003 24.5401 26.1694C24.5276 25.715 24.3188 14.9762 30.5113 8.72187C33.4095 5.795 37.2245 4.35 41.8501 4.42562C50.4838 4.5675 56.0413 8.95687 59.1826 12.6137C62.607 16.5994 64.2857 20.9956 64.4239 22.4631C64.527 23.5544 63.7438 23.7725 63.5857 23.805L63.2257 23.8131C59.2413 23.175 56.6851 23.6181 55.6282 25.1281C53.3538 28.3787 57.757 36.2744 59.637 39.6462C60.117 40.5062 60.4632 41.1281 60.622 41.5119C61.2395 43.0094 62.0451 44.0156 62.692 44.8244C63.2613 45.5356 63.7545 46.1525 63.9307 46.8762C64.0126 47.02 65.1745 48.7387 72.0688 47.3156C73.797 46.9594 74.8332 47.2637 75.1501 48.2219C75.7732 50.1062 72.277 52.3044 70.3413 53.2031C68.607 54.0094 65.8388 54.5194 63.4438 54.5194ZM60.5089 52.0062C60.7276 52.2269 61.822 52.6075 64.0882 52.51C66.1032 52.4237 68.2282 51.9856 69.5032 51.3937C71.1339 50.6362 72.2226 49.7894 72.7863 49.2112L72.4738 49.2687C68.0657 50.1787 64.9476 50.0575 63.2063 48.9081C63.0892 48.831 62.9766 48.7473 62.8688 48.6575C62.6801 48.7319 62.5057 48.7806 62.3813 48.8156C61.3938 49.0925 60.3726 49.3794 60.5089 52.0062ZM32.0326 57.5781C30.9376 57.5781 29.7851 57.4287 28.6082 57.1344C27.3888 56.8294 25.3332 55.9112 25.3645 54.4031C25.4001 52.7112 27.8607 52.2037 28.787 52.0131C32.1332 51.3237 32.3513 51.0475 33.397 49.7194C33.702 49.3325 34.0813 48.8506 34.5989 48.2731C35.367 47.4131 36.2063 46.9775 37.0938 46.9775C37.712 46.9775 38.2188 47.1869 38.5538 47.3262C39.6213 47.7687 40.512 48.8387 40.8782 50.1181C41.2088 51.2725 41.0507 52.3837 40.4345 53.2469C38.4113 56.08 35.5057 57.5781 32.0326 57.5781ZM27.5188 54.4887C27.8195 54.7212 28.422 55.0319 29.0926 55.1994C30.112 55.4544 31.1007 55.5837 32.0332 55.5837C34.8745 55.5837 37.1557 54.4075 38.8126 52.0875C39.1582 51.6037 39.0545 50.9894 38.962 50.6662C38.7682 49.9894 38.287 49.3737 37.7913 49.1681C37.5226 49.0569 37.2995 48.9719 37.0945 48.9719C36.9845 48.9719 36.6495 48.9719 36.0857 49.6025C35.6966 50.04 35.3227 50.4907 34.9645 50.9537C33.662 52.6075 33.0651 53.1687 29.1901 53.9669C28.2445 54.1606 27.7595 54.3581 27.5188 54.4887ZM35.187 49.8887C34.9489 49.8884 34.7188 49.8029 34.5383 49.6477C34.3578 49.4925 34.2387 49.2778 34.2026 49.0425C34.1776 48.877 34.1609 48.7103 34.1526 48.5431C31.6126 48.4956 29.162 47.4056 27.3013 45.4644C24.9488 43.01 23.8782 39.6094 24.3645 36.135C24.8926 32.3619 24.6951 29.0312 24.5888 27.2419C24.5595 26.7444 24.5382 26.385 24.5395 26.1362C24.5413 25.8206 24.5476 24.9837 27.3451 23.5656C28.3401 23.0612 30.3351 22.1812 32.5145 21.9556C36.1251 21.5825 38.5051 23.1906 39.2176 26.4844C41.1407 35.3769 39.3701 39.31 38.077 42.1825C37.8363 42.7175 37.6088 43.2225 37.427 43.7119L37.2663 44.1431C36.5832 45.975 35.9926 47.5575 36.1738 48.7394C36.1937 48.8688 36.188 49.0009 36.1568 49.1281C36.1256 49.2553 36.0697 49.3751 35.9922 49.4807C35.9147 49.5863 35.8172 49.6755 35.7052 49.7434C35.5932 49.8113 35.4689 49.8564 35.3395 49.8762L35.187 49.8887ZM26.5401 26.4125L26.5788 27.1244C26.6888 28.9831 26.8938 32.4419 26.3388 36.4119C25.9382 39.2775 26.8132 42.0744 28.7407 44.0844C30.2638 45.6731 32.2682 46.55 34.3282 46.55H34.3707C34.6013 45.5781 34.9845 44.5519 35.397 43.4462L35.5563 43.0175C35.762 42.465 36.0026 41.93 36.2576 41.3637C37.502 38.5987 39.0513 35.1569 37.267 26.9062C36.9138 25.2719 36.057 24.3262 34.6488 24.0144C31.7563 23.3756 27.4457 25.5512 26.5401 26.4125ZM32.5588 25.9894C32.5089 26.3419 33.2045 27.2831 34.112 27.4087C35.0176 27.5356 35.7926 26.7994 35.842 26.4469C35.8913 26.0944 35.1963 25.7056 34.2888 25.5794C33.3813 25.4531 32.607 25.6369 32.5588 25.9894ZM34.3201 27.7556L34.0657 27.7381C33.5032 27.66 32.9345 27.3056 32.5451 26.7894C32.4082 26.6081 32.1851 26.2569 32.2295 25.9431C32.2926 25.4831 32.8538 25.2075 33.7295 25.2075C33.9251 25.2075 34.1288 25.2219 34.3338 25.2506C34.8126 25.3169 35.257 25.455 35.5851 25.6381C36.1538 25.9556 36.1957 26.31 36.1701 26.4931C36.1001 27.0012 35.292 27.7556 34.3201 27.7556ZM32.8895 26.0481C32.9176 26.2656 33.4563 26.9831 34.1576 27.08L34.3207 27.0912C34.9682 27.0912 35.452 26.5819 35.5088 26.415C35.4488 26.3012 35.0326 26.0187 34.2432 25.9087C34.0732 25.8847 33.9018 25.8724 33.7301 25.8719C33.2226 25.8719 32.9532 25.9862 32.8895 26.0481ZM60.1426 25.27C60.192 25.6225 59.497 26.5637 58.5901 26.69C57.6838 26.8162 56.9082 26.0806 56.8582 25.7281C56.8107 25.3756 57.5057 24.9862 58.412 24.8606C59.3182 24.7337 60.0926 24.9181 60.1426 25.27ZM58.3807 26.87C57.5082 26.87 56.7551 26.1912 56.6932 25.7506C56.6213 25.2219 57.492 24.82 58.3882 24.6956C58.5857 24.6681 58.7813 24.6544 58.9695 24.6544C59.7432 24.6544 60.2557 24.8812 60.307 25.2475C60.3401 25.4844 60.1582 25.85 59.8451 26.18C59.6382 26.3969 59.2038 26.7725 58.612 26.8544L58.3807 26.87ZM58.9701 24.9869C58.7968 24.9869 58.6184 24.9996 58.4351 25.025C57.5345 25.1506 56.997 25.5119 57.0232 25.7056C57.0532 25.9187 57.6282 26.5381 58.3814 26.5381L58.567 26.525C59.0588 26.4569 59.4282 26.1356 59.6045 25.9506C59.8813 25.66 59.9913 25.3862 59.9782 25.2931C59.9607 25.1694 59.6282 24.9869 58.9701 24.9869ZM61.4482 45.5137C61.2675 45.5139 61.0902 45.4648 60.9353 45.3719C60.7803 45.279 60.6536 45.1457 60.5686 44.9862C60.4835 44.8268 60.4435 44.6473 60.4527 44.4668C60.4619 44.2864 60.52 44.1118 60.6207 43.9619C62.7445 40.79 62.3557 37.5556 61.9801 34.4275C61.8195 33.095 61.6545 31.7169 61.697 30.3944C61.7407 29.0337 61.9138 27.9112 62.0807 26.8256C62.2789 25.5394 62.4663 24.3244 62.3888 22.8819C62.3818 22.7511 62.4006 22.6203 62.4441 22.4968C62.4876 22.3733 62.555 22.2596 62.6425 22.1621C62.7299 22.0647 62.8357 21.9854 62.9538 21.9289C63.0719 21.8723 63.2 21.8396 63.3307 21.8325C63.4615 21.8254 63.5923 21.8442 63.7158 21.8877C63.8393 21.9312 63.953 21.9986 64.0505 22.0861C64.2473 22.2627 64.3658 22.5103 64.3801 22.7744C64.4688 24.4231 64.257 25.7981 64.052 27.1287C63.8938 28.1556 63.7301 29.2175 63.6907 30.4581C63.6526 31.6294 63.802 32.8731 63.9601 34.1894C64.3601 37.5156 64.8132 41.2856 62.2782 45.0712C62.1868 45.2074 62.0632 45.319 61.9185 45.3962C61.7738 45.4733 61.6123 45.5137 61.4482 45.5137Z" fill="white"/>
</svg>
