<svg width="80" height="80" viewBox="0 0 80 80" fill="none" xmlns="http://www.w3.org/2000/svg">
<path d="M70.6981 16.2912C57.605 -0.663807 33.2443 -3.79381 16.2887 9.30182C-0.664402 22.3974 -3.79128 46.7581 9.30435 63.7112C22.4025 80.6637 46.765 83.7887 63.7156 70.6906C80.6618 57.5949 83.7893 33.2418 70.6981 16.2912Z" fill="#F37036"/>
<path d="M56.9237 15.1026C55.5883 15.2094 54.3222 15.7407 53.3106 16.6188C52.1267 17.647 51.3711 19.0816 51.1929 20.6395C51.0147 22.1974 51.4269 23.7655 52.3481 25.0345C53.2684 26.3036 54.6309 27.1819 56.1669 27.496C57.7029 27.8101 59.3008 27.5373 60.6456 26.7313H60.6468L60.7443 26.8288C61.1872 26.5751 61.5993 26.271 61.9724 25.9226C63.1236 24.7051 63.7568 23.088 63.7386 21.4126C63.7205 19.7371 63.0522 18.1342 61.8749 16.942V16.9407L56.3474 22.4338L56.2499 22.337L61.7774 16.8413C61.1376 16.2245 60.374 15.7506 59.5372 15.4511C58.7005 15.1516 57.8096 15.0332 56.9237 15.1038V15.1026ZM49.6462 24.0945C46.9962 24.0901 42.6693 27.0938 32.1043 37.6588L32.1568 37.7126C32.0993 37.6926 32.0412 37.6907 32.0412 37.6907L28.0637 41.6332C27.9615 41.7304 27.8939 41.8582 27.8711 41.9973C27.8483 42.1364 27.8716 42.2792 27.9374 42.4039C28.0032 42.5285 28.108 42.6283 28.2357 42.688C28.3634 42.7476 28.5071 42.764 28.6449 42.7345L35.4662 41.2795C35.4965 41.2514 35.5168 41.214 35.5237 41.1732L35.6749 41.3295L33.3499 43.6357H33.2374L19.4337 57.5482L23.8624 61.8132C23.9861 61.9252 24.1424 61.9947 24.3084 62.0114C24.4744 62.0282 24.6414 61.9913 24.7849 61.9063C24.9297 61.8221 25.0456 61.6961 25.1175 61.5449C25.1895 61.3937 25.214 61.2243 25.1881 61.0588L24.5412 58.2463C24.5005 58.1899 24.4786 58.1221 24.4786 58.0526C24.4786 57.983 24.5005 57.9152 24.5412 57.8588C30.5875 54.9763 36.2102 51.2788 41.2524 46.8695L38.4181 44.0338L38.4718 44.0251L36.7906 42.3445L36.8981 42.2357L37.0118 42.352L36.9531 42.4088L41.4137 46.967V46.9651C49.9637 38.8688 56.0324 32.3607 54.4543 27.9807C54.3824 27.4569 54.1391 26.9717 53.7624 26.6007V26.6032C53.6665 26.5323 53.5656 26.4684 53.4606 26.412C53.4087 26.357 53.3631 26.3007 53.3081 26.247L53.2668 26.2882C53.1507 26.218 53.029 26.1574 52.9031 26.107L53.0837 25.9245C51.9612 24.9245 51.0337 24.097 49.6462 24.0932V24.0945ZM19.3374 57.6313L16.1056 60.8638V60.8663C15.9896 60.9382 15.8994 61.045 15.8481 61.1713C15.7968 61.2977 15.7869 61.4371 15.8199 61.5695C15.8518 61.7018 15.9246 61.8206 16.028 61.9092C16.1313 61.9977 16.2599 62.0514 16.3956 62.0626L24.3156 62.6095L19.3374 57.6313Z" fill="white"/>
<path d="M57.4688 14.5689C55.6549 14.5668 53.913 15.2785 52.6195 16.5501C51.6993 17.4921 51.0692 18.6787 50.8044 19.9686C50.5395 21.2585 50.6511 22.5974 51.1257 23.8257C48.1626 22.557 44.1538 24.7695 31.6845 37.2364C31.6758 37.2555 31.6681 37.2751 31.6613 37.2951C31.6357 37.3063 31.6109 37.3193 31.587 37.3339L27.6438 41.3114C27.4548 41.4969 27.3307 41.7384 27.2898 42C27.249 42.2617 27.2935 42.5295 27.417 42.7638C27.527 42.9493 27.683 43.1033 27.8699 43.211C28.0567 43.3188 28.2682 43.3765 28.4838 43.3789L28.6795 43.252L33.9445 42.1289L31.4257 44.6707C31.4115 44.7043 31.4002 44.739 31.392 44.7745L19.0482 57.1489C18.999 57.1903 18.9583 57.2408 18.9282 57.2976L15.7495 60.4789C15.5912 60.6462 15.4831 60.8545 15.4374 61.0803C15.3916 61.306 15.4101 61.54 15.4907 61.7557C15.5739 61.9699 15.7145 62.157 15.8971 62.2965C16.0797 62.436 16.2972 62.5224 16.5257 62.5464L24.412 63.0964C24.5467 63.0495 24.6614 62.958 24.737 62.837C24.8044 62.7426 24.8407 62.6295 24.8407 62.5135C24.8407 62.3976 24.8044 62.2845 24.737 62.1901L24.7207 62.1745C24.8913 62.0858 25.0414 61.9623 25.1613 61.812C25.2879 61.6476 25.3763 61.4571 25.4202 61.2543C25.4641 61.0515 25.4623 60.8415 25.4151 60.6395L24.8001 58.0226C30.7004 55.203 36.2288 51.6633 41.2588 47.4845C41.3074 47.5128 41.3595 47.5345 41.4138 47.5489C41.5726 47.537 41.7213 47.4688 41.8338 47.3563C50.3026 39.3376 55.2807 33.8426 55.2807 29.4801C55.2995 28.8749 55.2082 28.2714 55.0113 27.6989C55.7747 28.0148 56.5888 28.1905 57.4145 28.2176L57.4051 28.2201C58.5425 28.1858 59.6544 27.8747 60.6445 27.3139L60.647 27.3145C60.7752 27.3526 60.9131 27.3403 61.0326 27.2801C61.5104 26.9987 61.946 26.6511 62.3263 26.2476C62.9709 25.6153 63.483 24.8608 63.8327 24.0282C64.1823 23.1957 64.3624 22.3018 64.3626 21.3989C64.3625 20.4959 64.1825 19.6021 63.833 18.7695C63.4834 17.937 62.9715 17.1825 62.327 16.5501C62.3038 16.5293 62.2792 16.5103 62.2532 16.4932C60.9665 15.2582 59.2518 14.5688 57.4682 14.5695L57.4688 14.5689ZM57.4145 15.6764C58.6775 15.6839 59.9035 16.104 60.9057 16.8726L55.8632 21.9457C55.8461 21.9651 55.8303 21.9856 55.8157 22.007C55.7248 22.0989 55.6716 22.2215 55.6663 22.3507C55.6663 22.4288 55.6838 22.5059 55.7177 22.5762C55.7516 22.6466 55.8009 22.7083 55.862 22.757H55.8632L59.6757 26.5695C58.6322 27.0249 57.4754 27.1544 56.357 26.9411C55.2386 26.7277 54.2108 26.1814 53.4082 25.3739C51.792 23.7489 51.3232 21.3089 52.1876 19.192C53.052 17.0732 55.1126 15.6889 57.4145 15.6764ZM61.8645 17.8214C62.689 18.8189 63.1385 20.0734 63.1351 21.3676C63.1328 22.8837 62.5285 24.3369 61.4551 25.4076C61.2399 25.61 61.0105 25.797 60.7688 25.967L57.692 22.9376L57.0901 22.3357L57.2557 22.1701L61.8638 17.8201L61.8645 17.8214ZM61.6357 20.442C61.5226 20.4064 61.4004 20.4133 61.292 20.4614C61.1847 20.5168 61.1038 20.6126 61.067 20.7276C61.0489 20.785 61.0423 20.8455 61.0477 20.9054C61.053 20.9654 61.0702 21.0237 61.0982 21.077C61.209 21.3105 61.2527 21.5703 61.2243 21.8273C61.1959 22.0842 61.0967 22.3282 60.9376 22.532C60.8968 22.5713 60.8649 22.6188 60.8439 22.6714C60.8229 22.724 60.8133 22.7804 60.8157 22.837C60.8182 22.952 60.8595 23.062 60.9376 23.1445C61.0209 23.1763 61.113 23.1763 61.1963 23.1445C61.2715 23.1632 61.3503 23.1611 61.4244 23.1383C61.4984 23.1155 61.5648 23.0729 61.6163 23.0151C61.8825 22.6891 62.051 22.2944 62.1024 21.8767C62.1538 21.459 62.0861 21.0353 61.907 20.6545V20.657C61.8459 20.5545 61.7494 20.4781 61.6357 20.442ZM49.5876 24.6439C50.3417 24.6696 51.0674 24.9384 51.6563 25.4101C51.0222 25.5015 50.4345 25.7953 49.9807 26.2476L35.7263 40.4382L32.9288 37.6407C40.3213 30.2832 44.8413 26.4401 47.6513 25.1807C48.2303 24.8162 48.9035 24.6299 49.5876 24.6439ZM52.0657 26.4939C52.5443 26.4942 53.0033 26.6838 53.3426 27.0214C53.5226 27.1909 53.6647 27.3968 53.7594 27.6253C53.8541 27.8538 53.8993 28.0997 53.892 28.347C53.8838 28.5934 53.8249 28.8354 53.7189 29.058C53.613 29.2806 53.4623 29.479 53.2763 29.6407L38.1201 42.832L36.4845 41.1964L50.7888 27.0214C51.1282 26.6841 51.5872 26.4941 52.0657 26.4939ZM53.937 30.6801C52.8807 34.8689 47.2826 40.5445 41.4451 46.0595L39.0845 43.7013L53.937 30.6801ZM32.1045 38.467L32.2757 38.6357L34.4713 40.8314L28.4526 42.1189L32.1045 38.467ZM35.7251 42.117L35.7276 42.1195L36.4576 42.8664L36.4688 42.9188L36.5176 42.9264L36.6726 43.0851L37.1851 43.6101L33.8195 44.0226L35.7251 42.117ZM38.142 44.6645L40.3782 46.8995C35.4334 51.0113 30.0071 54.5069 24.2188 57.3095C24.0309 57.399 23.8798 57.5508 23.7913 57.7392C23.7027 57.9276 23.6822 58.1408 23.7332 58.3426L24.3801 61.1551C24.4039 61.1881 24.4168 61.2278 24.4168 61.2685C24.4168 61.3093 24.4039 61.349 24.3801 61.382C24.3445 61.4139 24.2985 61.4315 24.2507 61.4315C24.203 61.4315 24.1569 61.4139 24.1213 61.382L20.3076 57.537L32.0626 45.6095L38.142 44.6645ZM19.4338 58.377L19.977 58.8857L22.7845 61.6932L16.5245 61.2882L19.4338 58.377Z" fill="#F37036"/>
</svg>
