<svg width="70" height="70" viewBox="0 0 70 70" fill="none" xmlns="http://www.w3.org/2000/svg">
<path d="M34.391 0.0195312C16.8232 0.0195312 17.9201 7.63797 17.9201 7.63797L17.9396 15.5309H34.7042V17.9006H11.2809C11.2809 17.9006 0.0393066 16.6256 0.0393066 34.3514C0.0393066 52.0777 9.85128 51.4491 9.85128 51.4491H15.707V43.2234C15.707 43.2234 15.3913 33.4114 25.3624 33.4114H41.9899C41.9899 33.4114 51.3317 33.5623 51.3317 24.3828V9.20502C51.3317 9.20502 52.7506 0.0195312 34.391 0.0195312ZM25.147 5.32737C25.5431 5.32702 25.9355 5.40478 26.3015 5.55622C26.6676 5.70766 27.0002 5.9298 27.2804 6.20993C27.5605 6.49005 27.7826 6.82267 27.9341 7.18874C28.0855 7.55481 28.1633 7.94716 28.1629 8.34332C28.1633 8.73948 28.0855 9.13182 27.9341 9.49789C27.7826 9.86396 27.5605 10.1966 27.2804 10.4767C27.0002 10.7568 26.6676 10.979 26.3015 11.1304C25.9355 11.2818 25.5431 11.3596 25.147 11.3593C24.7508 11.3596 24.3585 11.2818 23.9924 11.1304C23.6263 10.979 23.2937 10.7568 23.0136 10.4767C22.7334 10.1966 22.5113 9.86396 22.3599 9.49789C22.2084 9.13182 22.1307 8.73948 22.131 8.34332C22.1307 7.94716 22.2084 7.55481 22.3599 7.18874C22.5113 6.82267 22.7334 6.49005 23.0136 6.20993C23.2937 5.9298 23.6263 5.70766 23.9924 5.55622C24.3585 5.40478 24.7508 5.32702 25.147 5.32737Z" fill="url(#paint0_linear_69_75)"/>
<path d="M34.8898 68.8616C52.4576 68.8616 51.3607 61.2432 51.3607 61.2432L51.3412 53.3505H34.5763V50.9809H57.9995C57.9995 50.9809 69.2412 52.2558 69.2412 34.5295C69.2412 16.8034 59.4292 17.4321 59.4292 17.4321H53.5735V25.6575C53.5735 25.6575 53.8891 35.4695 43.9181 35.4695H27.2906C27.2906 35.4695 17.9488 35.3185 17.9488 44.4983V59.6764C17.9488 59.6764 16.5302 68.8616 34.8895 68.8616M44.1335 63.5543C43.7374 63.5547 43.345 63.4769 42.979 63.3255C42.6129 63.174 42.2803 62.9519 42.0001 62.6718C41.72 62.3916 41.4979 62.059 41.3464 61.693C41.195 61.3269 41.1172 60.9345 41.1176 60.5384C41.1172 60.1422 41.1949 59.7498 41.3464 59.3837C41.4978 59.0176 41.7199 58.685 42 58.4048C42.2802 58.1247 42.6128 57.9025 42.9789 57.751C43.345 57.5996 43.7373 57.5218 44.1335 57.5222C44.5297 57.5218 44.922 57.5996 45.2881 57.751C45.6542 57.9025 45.9868 58.1246 46.2669 58.4047C46.547 58.6848 46.7692 59.0175 46.9206 59.3835C47.0721 59.7496 47.1498 60.1419 47.1495 60.5381C47.1498 60.9343 47.0721 61.3266 46.9206 61.6927C46.7692 62.0588 46.547 62.3914 46.2669 62.6715C45.9868 62.9516 45.6542 63.1738 45.2881 63.3252C44.922 63.4766 44.5297 63.5547 44.1335 63.5543Z" fill="url(#paint1_linear_69_75)"/>
<defs>
<linearGradient id="paint0_linear_69_75" x1="665.068" y1="619.213" x2="4094.51" y2="4014.44" gradientUnits="userSpaceOnUse">
<stop stop-color="#387EB8"/>
<stop offset="1" stop-color="#366994"/>
</linearGradient>
<linearGradient id="paint1_linear_69_75" x1="999.531" y1="1075.85" x2="4682.35" y2="4557.34" gradientUnits="userSpaceOnUse">
<stop stop-color="#FFE052"/>
<stop offset="1" stop-color="#FFC331"/>
</linearGradient>
</defs>
</svg>
