<svg width="72" height="72" viewBox="0 0 72 72" fill="none" xmlns="http://www.w3.org/2000/svg">
<path d="M35.9482 26.9612C52.6732 26.9612 62.9094 32.7803 62.9094 35.9482C62.9094 39.1162 52.6732 44.9353 35.9482 44.9353C19.2233 44.9353 8.98706 39.1162 8.98706 35.9482C8.98706 32.7803 19.2233 26.9612 35.9482 26.9612ZM35.9482 22.4677C18.5763 22.4677 4.49353 28.5025 4.49353 35.9482C4.49353 43.394 18.5763 49.4288 35.9482 49.4288C53.3202 49.4288 67.4029 43.394 67.4029 35.9482C67.4029 28.5025 53.3202 22.4677 35.9482 22.4677Z" fill="#00BCD4"/>
<path d="M35.9482 31.4547C35.0595 31.4547 34.1907 31.7183 33.4518 32.212C32.7128 32.7058 32.1369 33.4076 31.7968 34.2286C31.4567 35.0497 31.3677 35.9532 31.5411 36.8249C31.7144 37.6965 32.1424 38.4972 32.7708 39.1256C33.3993 39.7541 34.1999 40.182 35.0716 40.3554C35.9433 40.5288 36.8468 40.4398 37.6678 40.0997C38.4889 39.7596 39.1907 39.1837 39.6845 38.4447C40.1782 37.7058 40.4418 36.837 40.4418 35.9482C40.4418 34.7565 39.9683 33.6135 39.1256 32.7708C38.2829 31.9281 37.14 31.4547 35.9482 31.4547Z" fill="#00BCD4"/>
<path d="M23.4967 12.3729C28.0284 12.3729 36.8358 19.5109 43.7311 31.4547C52.0935 45.9396 52.1722 57.7126 49.4289 59.2966C49.1124 59.4607 48.7582 59.5382 48.4021 59.5213C43.8704 59.5213 35.0608 52.3856 28.1655 40.4418C19.803 25.9569 19.7244 14.1838 22.4677 12.5998C22.7848 12.4354 23.1399 12.3556 23.4967 12.3729ZM23.4945 7.88164C22.3494 7.86092 21.2195 8.14553 20.2209 8.7062C13.7727 12.4291 15.5881 27.6442 24.2741 42.6885C31.6525 55.4726 41.6191 64.0171 48.4044 64.0171C49.549 64.036 50.6782 63.7499 51.6756 63.188C58.1239 59.4674 56.3085 44.2523 47.6225 29.2079C40.2441 16.4238 30.2775 7.87939 23.4922 7.87939L23.4945 7.88164Z" fill="#00BCD4"/>
<path d="M48.4021 12.373C48.7582 12.3561 49.1124 12.4336 49.4289 12.5977C52.1722 14.1839 52.0935 25.9569 43.7311 40.4418C36.8335 52.3856 28.0262 59.5236 23.4945 59.5236C23.1384 59.5405 22.7842 59.463 22.4677 59.2989C19.7244 57.7105 19.803 45.9374 28.1655 31.4548C35.063 19.511 43.8704 12.373 48.4021 12.373ZM48.4021 7.87946C41.6169 7.87946 31.6525 16.4262 24.2718 29.208C15.5903 44.2523 13.7727 59.4674 20.2209 63.1881C21.2191 63.7503 22.349 64.0365 23.4945 64.0171C30.2797 64.0171 40.2441 55.4704 47.6247 42.6886C56.3062 27.6442 58.1238 12.4292 51.6756 8.70852C50.6775 8.14628 49.5475 7.86011 48.4021 7.87946Z" fill="#00BCD4"/>
</svg>
